<svg xmlns="http://www.w3.org/2000/svg" fill="none" viewBox="1 5.21 159.5 90.93">
<path d="M121.875 47.3438C121.875 51.1146 121.802 54.9479 121.656 58.8438C121.51 62.7188 121.406 66.5729 121.344 70.4062C121.323 72.1562 121.333 73.8958 121.375 75.625C121.438 77.3333 121.5 78.9688 121.562 80.5312C121.646 82.0729 121.719 83.4896 121.781 84.7812C121.844 86.0521 121.875 87.125 121.875 88C121.875 88.6042 121.854 89.0938 121.812 89.4688C121.771 89.8229 121.698 90.0312 121.594 90.0938C121.49 90.1979 121.396 90.2604 121.312 90.2812C121.229 90.3021 121.146 90.3125 121.062 90.3125C120.979 90.3125 120.885 90.3125 120.781 90.3125C120.698 90.2917 120.594 90.3125 120.469 90.375C120.323 90.4375 120.229 90.5104 120.188 90.5938C120.146 90.6562 120.104 90.7292 120.062 90.8125C120.021 90.8958 119.958 90.9792 119.875 91.0625C119.792 91.1458 119.646 91.2292 119.438 91.3125C119.167 91.375 118.906 91.3021 118.656 91.0938C118.427 90.9062 118.198 90.75 117.969 90.625C117.615 90.4167 117.323 90.25 117.094 90.125C116.885 89.9792 116.688 89.7604 116.5 89.4688C116.354 89.2188 116.229 88.8438 116.125 88.3438C116.021 87.8229 115.938 87.2188 115.875 86.5312C115.812 85.8229 115.771 85.0417 115.75 84.1875C115.729 83.3333 115.719 82.4479 115.719 81.5312C115.719 80.4896 115.729 79.4479 115.75 78.4062C115.771 77.3438 115.792 76.3333 115.812 75.375C115.854 74.4167 115.885 73.5521 115.906 72.7812C115.927 72.0104 115.948 71.3854 115.969 70.9062C116.01 69.4062 116.062 67.8333 116.125 66.1875C116.208 64.5417 116.281 62.9062 116.344 61.2812C116.427 59.6354 116.51 58.0521 116.594 56.5312C116.677 55.0104 116.76 53.625 116.844 52.375C116.927 51.1042 117 50.0312 117.062 49.1562C117.146 48.2604 117.229 47.6354 117.312 47.2812C117.438 46.8438 117.656 46.5938 117.969 46.5312C118.115 46.4688 118.229 46.4792 118.312 46.5625C118.417 46.6458 118.531 46.5938 118.656 46.4062C118.698 46.3021 118.76 46.2396 118.844 46.2188C118.927 46.1979 119.01 46.1875 119.094 46.1875C119.177 46.1875 119.26 46.1875 119.344 46.1875C119.427 46.1875 119.5 46.1667 119.562 46.125C119.688 46 119.812 45.9792 119.938 46.0625C120.083 46.125 120.188 46.1875 120.25 46.25C120.312 46.3958 120.396 46.5104 120.5 46.5938C120.604 46.6562 120.719 46.6354 120.844 46.5312C120.906 46.4688 120.99 46.4375 121.094 46.4375C121.219 46.4375 121.302 46.4896 121.344 46.5938C121.406 46.6979 121.51 46.8021 121.656 46.9062C121.802 47.0104 121.875 47.1562 121.875 47.3438ZM148.156 89.6562C148.156 89.9062 148.062 90.1875 147.875 90.5C147.708 90.7917 147.458 90.9375 147.125 90.9375C146.938 90.9375 146.792 90.8854 146.688 90.7812C146.583 90.6771 146.479 90.625 146.375 90.625C146.229 90.625 146.083 90.6771 145.938 90.7812C145.812 90.8854 145.594 90.9375 145.281 90.9375C144.865 90.9375 144.5 90.7917 144.188 90.5C143.896 90.1875 143.656 89.8021 143.469 89.3438C143.281 88.8646 143.135 88.3542 143.031 87.8125C142.948 87.25 142.906 86.7292 142.906 86.25C142.906 85.3125 142.938 84.25 143 83.0625C143.083 81.8542 143.167 80.625 143.25 79.375C143.354 78.1042 143.438 76.8438 143.5 75.5938C143.583 74.3438 143.625 73.1875 143.625 72.125C143.625 70.7083 143.531 69.6042 143.344 68.8125C143.156 68.0208 142.823 67.625 142.344 67.625C141.885 67.6875 141.417 68.0833 140.938 68.8125C140.458 69.5417 139.969 70.4792 139.469 71.625C138.969 72.75 138.479 74.0312 138 75.4688C137.521 76.8854 137.052 78.3438 136.594 79.8438C136.156 81.3229 135.74 82.7708 135.344 84.1875C134.948 85.5833 134.594 86.8333 134.281 87.9375C133.969 89.0417 133.698 89.9375 133.469 90.625C133.24 91.2917 133.083 91.625 133 91.625C132.833 91.625 132.708 91.5833 132.625 91.5C132.542 91.4375 132.458 91.3646 132.375 91.2812C132.312 91.1979 132.229 91.1146 132.125 91.0312C132.021 90.9688 131.865 90.9375 131.656 90.9375C131.469 90.9375 131.344 90.9583 131.281 91C131.219 91.0417 131.146 91.0938 131.062 91.1562C130.979 91.2188 130.875 91.2708 130.75 91.3125C130.625 91.3542 130.406 91.375 130.094 91.375C129.719 91.375 129.344 91.2812 128.969 91.0938C128.615 90.9062 128.438 90.6146 128.438 90.2188C128.438 89.9688 128.479 89.4583 128.562 88.6875C128.646 87.8958 128.74 86.9375 128.844 85.8125C128.969 84.6667 129.094 83.3958 129.219 82C129.365 80.5833 129.49 79.125 129.594 77.625C129.719 76.125 129.823 74.625 129.906 73.125C129.99 71.625 130.031 70.1979 130.031 68.8438C130.031 68.1771 130.021 67.5625 130 67C129.979 66.4167 129.969 65.8646 129.969 65.3438C129.969 65.2188 130.031 65.1562 130.156 65.1562C130.406 65.1562 130.594 65.2083 130.719 65.3125C130.865 65.3958 130.969 65.4896 131.031 65.5938C131.094 65.6979 131.125 65.8021 131.125 65.9062C131.146 65.9896 131.167 66.0312 131.188 66.0312C131.25 66.0312 131.323 66 131.406 65.9375C131.49 65.8542 131.573 65.7708 131.656 65.6875C131.76 65.6042 131.854 65.5312 131.938 65.4688C132.021 65.3854 132.094 65.3438 132.156 65.3438H132.469C132.781 65.3438 133 65.3021 133.125 65.2188C133.25 65.1146 133.333 65.0104 133.375 64.9062C133.438 64.7812 133.479 64.6771 133.5 64.5938C133.521 64.4896 133.583 64.4375 133.688 64.4375C133.75 64.4375 133.833 64.4896 133.938 64.5938C134.062 64.6771 134.177 64.8333 134.281 65.0625C134.406 65.2708 134.51 65.5521 134.594 65.9062C134.677 66.2604 134.719 66.6875 134.719 67.1875C134.719 67.8542 134.688 68.6979 134.625 69.7188C134.583 70.7396 134.521 71.8333 134.438 73C134.375 74.1458 134.312 75.3125 134.25 76.5C134.188 77.6667 134.146 78.7292 134.125 79.6875C134.354 78.7917 134.625 77.8021 134.938 76.7188C135.271 75.6146 135.646 74.5 136.062 73.375C136.5 72.25 136.969 71.1562 137.469 70.0938C137.969 69.0104 138.51 68.0521 139.094 67.2188C139.677 66.3854 140.292 65.7188 140.938 65.2188C141.583 64.6979 142.26 64.4375 142.969 64.4375C144.094 64.4375 145.01 64.6458 145.719 65.0625C146.448 65.4792 147.021 66.0521 147.438 66.7812C147.854 67.5104 148.135 68.3646 148.281 69.3438C148.448 70.3229 148.531 71.375 148.531 72.5C148.531 73.4583 148.49 74.4688 148.406 75.5312C148.323 76.5729 148.229 77.625 148.125 78.6875C148.042 79.7292 147.958 80.7604 147.875 81.7812C147.812 82.8021 147.781 83.7604 147.781 84.6562C147.781 85.7604 147.844 86.7604 147.969 87.6562C148.094 88.5312 148.156 89.1979 148.156 89.6562ZM160.156 48.375C160.031 49.1042 159.917 50.0104 159.812 51.0938C159.708 52.1771 159.625 53.3854 159.562 54.7188C159.5 56.0521 159.448 57.4792 159.406 59C159.365 60.5208 159.344 62.0833 159.344 63.6875C159.344 64.875 159.344 66.0729 159.344 67.2812C159.365 68.4688 159.406 69.6562 159.469 70.8438C159.469 71.1979 159.479 71.7812 159.5 72.5938C159.521 73.3854 159.531 74.375 159.531 75.5625C159.531 76.25 159.521 76.9375 159.5 77.625C159.5 78.2917 159.49 78.8958 159.469 79.4375C159.448 79.9792 159.417 80.4479 159.375 80.8438C159.354 81.2188 159.323 81.4479 159.281 81.5312C159.073 81.9479 158.865 82.2396 158.656 82.4062C158.469 82.5521 158.312 82.6042 158.188 82.5625C158.104 82.5625 158.021 82.4688 157.938 82.2812C157.938 82.2188 157.833 82.2083 157.625 82.25C157.417 82.2708 157.198 82.2604 156.969 82.2188C156.844 82.2188 156.74 82.1667 156.656 82.0625C156.573 81.9583 156.417 81.9271 156.188 81.9688C156.062 81.9688 155.948 81.8854 155.844 81.7188C155.74 81.5521 155.667 81.3229 155.625 81.0312C155.604 80.8854 155.573 80.4688 155.531 79.7812C155.51 79.0938 155.469 78.25 155.406 77.25C155.365 76.25 155.312 75.1458 155.25 73.9375C155.188 72.7083 155.125 71.4896 155.062 70.2812C155.021 69.0521 154.979 67.8854 154.938 66.7812C154.917 65.6771 154.906 64.7292 154.906 63.9375C154.906 63.0625 154.885 62.0833 154.844 61C154.802 59.8958 154.76 58.7708 154.719 57.625C154.677 56.4583 154.635 55.3021 154.594 54.1562C154.552 52.9896 154.531 51.8958 154.531 50.875C154.531 50.2083 154.531 49.5833 154.531 49C154.552 48.4167 154.594 47.8854 154.656 47.4062C154.677 47.3021 154.688 47.2188 154.688 47.1562C154.688 47.0729 154.708 47 154.75 46.9375C154.812 46.875 154.917 46.8021 155.062 46.7188C155.208 46.6354 155.438 46.5312 155.75 46.4062C156.167 46.1979 156.51 46.0521 156.781 45.9688C157.052 45.8646 157.302 45.8125 157.531 45.8125C157.781 45.8125 158.021 45.8958 158.25 46.0625C158.396 46.1667 158.531 46.2292 158.656 46.25C158.781 46.25 158.896 46.2396 159 46.2188C159.125 46.1979 159.24 46.1771 159.344 46.1562C159.448 46.1146 159.552 46.1042 159.656 46.125C159.823 46.1667 159.969 46.2708 160.094 46.4375C160.219 46.5833 160.281 46.8646 160.281 47.2812C160.281 47.4479 160.271 47.6146 160.25 47.7812C160.229 47.9479 160.198 48.1458 160.156 48.375ZM160.406 87.6875C160.427 87.9792 160.417 88.3229 160.375 88.7188C160.333 89.0938 160.25 89.4583 160.125 89.8125C160.021 90.1667 159.875 90.4896 159.688 90.7812C159.5 91.0521 159.271 91.2292 159 91.3125C158.646 91.4375 158.312 91.5312 158 91.5938C157.708 91.6771 157.448 91.7188 157.219 91.7188C156.802 91.7188 156.448 91.6458 156.156 91.5C155.885 91.3542 155.604 91.1875 155.312 91C154.896 90.7708 154.542 90.4583 154.25 90.0625C153.979 89.6667 153.844 89.2708 153.844 88.875C153.844 88.5833 153.906 88.2292 154.031 87.8125C154.177 87.3958 154.344 86.9896 154.531 86.5938C154.74 86.1771 154.958 85.8021 155.188 85.4688C155.438 85.1354 155.667 84.9062 155.875 84.7812C156.229 84.5938 156.51 84.5 156.719 84.5C156.948 84.4792 157.156 84.4688 157.344 84.4688C158.323 84.4688 159.062 84.7188 159.562 85.2188C160.083 85.6979 160.365 86.5208 160.406 87.6875Z" fill="#2E3244"/>
<path d="M100.403 81.1771L101.617 82.7589L101.617 82.7589L100.403 81.1771ZM108.728 76.6074C108.877 75.5149 108.109 74.5134 107.012 74.3704L89.1307 72.04C88.0334 71.897 87.0231 72.6667 86.8739 73.7592C86.7248 74.8516 87.4934 75.8532 88.5907 75.9962L104.485 78.0676L102.325 93.8924C102.176 94.9848 102.944 95.9864 104.042 96.1294C105.139 96.2724 106.149 95.5027 106.298 94.4102L108.728 76.6074ZM101.617 82.7589L107.955 77.9303L105.528 74.7666L99.189 79.5953L101.617 82.7589ZM40.3969 49.3627C37.4065 82.3119 75.1649 102.91 101.617 82.7589L99.189 79.5953C75.5117 97.6322 41.714 79.1951 44.3907 49.7021L40.3969 49.3627Z" fill="#F1895C"/>
<path d="M37.4512 18.0938C37.4512 19.2812 37.2637 20.4792 36.8887 21.6875C36.5137 22.8958 35.9617 24.0625 35.2325 25.1875C34.5242 26.3125 33.6596 27.375 32.6387 28.375C31.6387 29.375 30.5137 30.2604 29.2637 31.0312C28.0346 31.7812 26.7012 32.3958 25.2637 32.875C23.8262 33.3542 22.3262 33.6458 20.7637 33.75C20.4721 33.7917 20.1804 33.7917 19.8887 33.75C19.6179 33.6875 19.3679 33.625 19.1387 33.5625C18.9721 33.5 18.7325 33.4062 18.42 33.2812C18.1283 33.1562 17.9408 33.0625 17.8575 33C17.7325 32.875 17.5554 32.6875 17.3262 32.4375C17.1179 32.1667 16.9617 31.9479 16.8575 31.7812C16.795 31.6771 16.7637 31.5104 16.7637 31.2812C16.7846 31.0312 16.795 30.75 16.795 30.4375C16.795 30.1458 16.7846 29.8438 16.7637 29.5312C16.7637 29.1979 16.795 29.0104 16.8575 28.9688C16.8992 28.9271 16.9929 28.9688 17.1387 29.0938C17.3054 29.1979 17.6179 29.2812 18.0762 29.3438C18.2637 29.3854 18.4721 29.3958 18.7012 29.375C18.9512 29.3542 19.1908 29.3229 19.42 29.2812C20.1492 29.2188 20.9929 29.0104 21.9512 28.6562C22.9096 28.3021 23.8887 27.8333 24.8887 27.25C25.9096 26.6667 26.9096 25.9896 27.8887 25.2188C28.8679 24.4271 29.7325 23.5833 30.4825 22.6875C31.2533 21.7917 31.8679 20.8438 32.3262 19.8438C32.8054 18.8438 33.045 17.8333 33.045 16.8125C33.045 16.0208 32.8887 15.2604 32.5762 14.5312C32.2637 13.7812 31.7742 13.0417 31.1075 12.3125C30.6908 11.8333 29.8783 11.4583 28.67 11.1875C27.4617 10.9167 26.0137 10.7812 24.3262 10.7812C22.8887 10.7812 21.3471 10.8958 19.7012 11.125C18.0554 11.3542 16.42 11.7292 14.795 12.25C13.3992 12.7083 12.2117 13.1146 11.2325 13.4688C10.2533 13.8021 9.40958 14.1042 8.70125 14.375C8.01375 14.6458 7.44083 14.875 6.9825 15.0625C6.545 15.25 6.15958 15.4167 5.82625 15.5625C5.49291 15.6875 5.19083 15.8125 4.92 15.9375C4.64916 16.0417 4.3575 16.1354 4.045 16.2188C3.75333 16.3229 3.52416 16.3854 3.3575 16.4062C3.19083 16.4062 3.05541 16.4062 2.95125 16.4062C2.78458 16.3646 2.65958 16.3229 2.57625 16.2812C2.51375 16.2188 2.43041 16.1562 2.32625 16.0938C2.24291 16.0312 2.15958 16.0104 2.07625 16.0312C1.99291 16.0312 1.90958 16.0417 1.82625 16.0625C1.76375 16.0833 1.69083 16.0833 1.6075 16.0625C1.52416 16.0417 1.44083 15.9688 1.3575 15.8438C1.2325 15.6146 1.14916 15.4375 1.1075 15.3125C1.045 15.1667 1.01375 15.0521 1.01375 14.9688C0.992915 14.8646 0.992915 14.7708 1.01375 14.6875C1.03458 14.6042 1.06583 14.5 1.1075 14.375C1.12833 14.25 1.12833 14.1354 1.1075 14.0312C1.08666 13.9271 1.07625 13.8333 1.07625 13.75C1.05541 13.6667 1.06583 13.5833 1.1075 13.5C1.12833 13.3958 1.21166 13.2812 1.3575 13.1562C1.64916 12.9271 2.12833 12.5729 2.795 12.0938C3.46166 11.6146 4.28458 11.0938 5.26375 10.5312C6.26375 9.94792 7.39916 9.35417 8.67 8.75C9.96166 8.14583 11.3575 7.59375 12.8575 7.09375C14.3783 6.57292 15.9929 6.14583 17.7012 5.8125C19.4304 5.45833 21.2325 5.26042 23.1075 5.21875C24.9825 5.17708 26.6283 5.38542 28.045 5.84375C29.4825 6.28125 30.7325 6.875 31.795 7.625C32.8575 8.35417 33.7429 9.19792 34.4512 10.1562C35.1804 11.0938 35.7637 12.0417 36.2012 13C36.6387 13.9583 36.9512 14.8854 37.1387 15.7812C37.3262 16.6771 37.4304 17.4479 37.4512 18.0938ZM16.0137 13.9062C15.9929 14.0104 15.9512 14.3646 15.8887 14.9688C15.8471 15.5729 15.7846 16.3542 15.7012 17.3125C15.6387 18.25 15.5658 19.3229 15.4825 20.5312C15.3992 21.7396 15.3158 23 15.2325 24.3125C15.1492 25.625 15.0658 26.9583 14.9825 28.3125C14.92 29.6458 14.8783 30.9271 14.8575 32.1562C14.8158 33.4062 14.7846 34.6979 14.7637 36.0312C14.7429 37.3438 14.7325 38.6771 14.7325 40.0312C14.7325 41.5938 14.7637 43.1354 14.8262 44.6562C14.9096 46.1771 15.045 47.6458 15.2325 49.0625C15.3158 49.5417 15.2846 49.9167 15.1387 50.1875C14.9929 50.4583 14.92 50.6979 14.92 50.9062C14.92 50.9688 14.9512 51.0312 15.0137 51.0938C15.0762 51.1354 15.0867 51.1771 15.045 51.2188C14.9825 51.3229 14.8679 51.3646 14.7012 51.3438C14.5554 51.3229 14.42 51.2604 14.295 51.1562C14.2325 51.0938 14.1804 51.0208 14.1387 50.9375C14.0971 50.8333 14.0554 50.75 14.0137 50.6875C13.9721 50.625 13.92 50.5938 13.8575 50.5938C13.795 50.5729 13.7012 50.6146 13.5762 50.7188C13.4721 50.8229 13.3471 50.9688 13.2012 51.1562C13.0762 51.3438 12.9408 51.5417 12.795 51.75C12.6492 51.9375 12.5033 52.1042 12.3575 52.25C12.2117 52.4167 12.0658 52.5208 11.92 52.5625C11.795 52.6042 11.6387 52.6458 11.4512 52.6875C11.2846 52.7292 11.1804 52.6667 11.1387 52.5C11.0971 52.4167 11.0554 52.3646 11.0137 52.3438C10.9721 52.3229 10.92 52.2917 10.8575 52.25C10.795 52.2292 10.7325 52.1875 10.67 52.125C10.6283 52.0833 10.5971 51.9792 10.5762 51.8125C10.4721 51.4583 10.3471 51.1979 10.2012 51.0312C10.0762 50.8438 10.0137 50.6354 10.0137 50.4062C9.97208 50.0521 9.86791 49.0312 9.70125 47.3438C9.55541 45.6562 9.4825 43.3229 9.4825 40.3438C9.4825 39.1562 9.49291 37.8646 9.51375 36.4688C9.55541 35.0729 9.62833 33.5938 9.7325 32.0312C9.83666 30.6354 9.96166 29.125 10.1075 27.5C10.2533 25.875 10.3992 24.2812 10.545 22.7188C10.7117 21.1562 10.8575 19.6979 10.9825 18.3438C11.1075 16.9896 11.2012 15.875 11.2637 15C11.2846 14.8542 11.3367 14.7604 11.42 14.7188C11.5033 14.6771 11.6179 14.6458 11.7637 14.625C11.9096 14.6042 12.0971 14.5833 12.3262 14.5625C12.5554 14.5208 12.8262 14.4375 13.1387 14.3125C13.3887 14.1875 13.6804 14.0625 14.0137 13.9375C14.3679 13.8125 14.6908 13.7188 14.9825 13.6562C15.295 13.5729 15.545 13.5417 15.7325 13.5625C15.9408 13.5833 16.0346 13.6979 16.0137 13.9062ZM56.4837 25.75C56.4421 25.8958 56.4108 26.1875 56.39 26.625C56.3692 27.0625 56.3379 27.6042 56.2962 28.25C57.1921 28 58.1087 27.8021 59.0462 27.6562C59.9837 27.5104 60.9421 27.4375 61.9212 27.4375C63.0046 27.4375 64.0879 27.5625 65.1712 27.8125C66.2546 28.0417 67.265 28.4479 68.2025 29.0312C68.9317 29.4688 69.5462 30.1667 70.0462 31.125C70.5671 32.0833 70.9942 33.1146 71.3275 34.2188C71.515 34.8646 71.7025 35.5833 71.89 36.375C72.0775 37.1458 72.1712 38 72.1712 38.9375C72.1712 39.7292 72.0671 40.5521 71.8587 41.4062C71.6712 42.2604 71.3275 43.1458 70.8275 44.0625C70.3275 44.9583 69.6504 45.8854 68.7962 46.8438C67.9421 47.7812 66.8483 48.7292 65.515 49.6875C64.2233 50.625 63.0671 51.3438 62.0462 51.8438C61.0462 52.3229 60.1921 52.6562 59.4837 52.8438C58.7754 53.0312 58.2233 53.1146 57.8275 53.0938C57.4525 53.0938 57.2337 53.0729 57.1712 53.0312C56.9837 52.9062 56.7962 52.6667 56.6087 52.3125C56.4212 51.9792 56.1608 51.6146 55.8275 51.2188C55.7233 51.0938 55.6296 50.9688 55.5462 50.8438C55.4629 50.6979 55.3692 50.5312 55.265 50.3438C55.2025 52.3438 55.1504 54.3021 55.1087 56.2188C55.0879 58.1354 55.0775 59.9271 55.0775 61.5938C55.0775 62.6354 55.0879 63.6042 55.1087 64.5C55.1296 65.4167 55.1608 66.2396 55.2025 66.9688C55.2025 67.2396 55.2129 67.5 55.2337 67.75C55.2754 68.0208 55.2858 68.2604 55.265 68.4688C55.265 68.6771 55.2233 68.8438 55.14 68.9688C55.0567 69.0938 54.9004 69.1562 54.6712 69.1562C54.2546 69.1562 53.9317 69.25 53.7025 69.4375C53.4942 69.6458 53.2442 69.9583 52.9525 70.375C52.7858 70.5625 52.6087 70.6979 52.4212 70.7812C52.2337 70.8854 52.0358 70.8854 51.8275 70.7812C51.64 70.6979 51.4421 70.5 51.2337 70.1875C51.0462 69.8958 50.8692 69.4479 50.7025 68.8438C50.64 68.5938 50.5775 68.2604 50.515 67.8438C50.4733 67.4479 50.4317 66.9375 50.39 66.3125C50.3692 65.7083 50.3483 64.9688 50.3275 64.0938C50.3275 63.2396 50.3275 62.2188 50.3275 61.0312L50.4525 50.2188C50.4942 47.4896 50.5983 44.8333 50.765 42.25C50.9317 39.6667 51.1296 37.2396 51.3587 34.9688C50.8379 35.1771 50.3587 35.3333 49.9212 35.4375C49.4837 35.5417 49.2129 35.5625 49.1087 35.5C48.9004 35.4167 48.765 35.3229 48.7025 35.2188C48.64 35.1146 48.5983 35.0208 48.5775 34.9375C48.5567 34.8333 48.5254 34.75 48.4837 34.6875C48.4629 34.6042 48.3796 34.5521 48.2337 34.5312C48.0879 34.5104 47.9629 34.4479 47.8587 34.3438C47.7546 34.2396 47.6817 34.1354 47.64 34.0312C47.6192 33.9271 47.6296 33.8333 47.6712 33.75C47.7337 33.6458 47.8483 33.5833 48.015 33.5625C48.1608 33.5417 48.1817 33.4896 48.0775 33.4062C47.9733 33.3021 47.8692 33.1771 47.765 33.0312C47.6817 32.8646 47.6608 32.6667 47.7025 32.4375C47.7442 32.1875 48.0046 31.9062 48.4837 31.5938C48.7337 31.3854 49.1712 31.125 49.7962 30.8125C50.4212 30.4792 51.1712 30.1146 52.0462 29.7188C52.2754 28.0938 52.5046 26.7708 52.7337 25.75C52.9837 24.7083 53.2025 24.0729 53.39 23.8438C53.4942 23.7396 53.5671 23.6458 53.6087 23.5625C53.6504 23.4792 53.6921 23.4062 53.7337 23.3438C53.7754 23.2812 53.8275 23.2292 53.89 23.1875C53.9525 23.1458 54.0671 23.1042 54.2337 23.0625C54.3796 23.0417 54.5046 23.0729 54.6087 23.1562C54.7129 23.2396 54.8067 23.3542 54.89 23.5C54.9942 23.625 55.0983 23.75 55.2025 23.875C55.3067 24 55.4317 24.0729 55.5775 24.0938C55.8692 24.1354 56.0983 24.2917 56.265 24.5625C56.4525 24.8125 56.5254 25.2083 56.4837 25.75ZM62.4837 31.8438C61.5462 31.8438 60.5462 31.9479 59.4837 32.1562C58.4212 32.3646 57.2442 32.7083 55.9525 33.1875L55.39 46.75C55.5775 46.8125 55.7858 46.8542 56.015 46.875C56.2442 46.875 56.5046 46.875 56.7962 46.875C57.4837 46.875 58.2754 46.7812 59.1712 46.5938C60.0879 46.4062 61.015 46.125 61.9525 45.75C62.89 45.3542 63.8171 44.8854 64.7337 44.3438C65.6504 43.7812 66.4629 43.1354 67.1712 42.4062C67.9004 41.6771 68.4837 40.8646 68.9212 39.9688C69.3587 39.0729 69.5879 38.0938 69.6087 37.0312C69.6296 36.4062 69.4837 35.7917 69.1712 35.1875C68.8796 34.5625 68.4317 34 67.8275 33.5C67.2442 33 66.5046 32.6042 65.6087 32.3125C64.7129 32 63.6712 31.8438 62.4837 31.8438ZM96.2188 40.5938C96.2188 40.8229 96.2292 41.0938 96.25 41.4062C96.2708 41.7188 96.2812 42.0729 96.2812 42.4688C96.2812 42.9688 96.2083 43.5938 96.0625 44.3438C95.9167 45.0729 95.6771 45.8438 95.3438 46.6562C95.0312 47.4688 94.6042 48.2812 94.0625 49.0938C93.5208 49.9062 92.8542 50.6354 92.0625 51.2812C91.2708 51.9271 90.3333 52.4479 89.25 52.8438C88.1875 53.2604 86.9688 53.4688 85.5938 53.4688C84.3646 53.4688 83.1042 53.2292 81.8125 52.75C80.5417 52.2917 79.375 51.5729 78.3125 50.5938C77.2708 49.5938 76.4062 48.3333 75.7188 46.8125C75.0521 45.2708 74.7188 43.4375 74.7188 41.3125C74.7188 39.9792 74.8854 38.6667 75.2188 37.375C75.5729 36.0833 76.0312 34.8646 76.5938 33.7188C77.1771 32.5729 77.8542 31.5208 78.625 30.5625C79.4167 29.5833 80.2396 28.75 81.0938 28.0625C81.9688 27.3542 82.8646 26.8021 83.7812 26.4062C84.7188 26.0104 85.625 25.8125 86.5 25.8125C88.0208 25.8125 89.2708 26.0521 90.25 26.5312C91.25 27.0104 92.0417 27.6042 92.625 28.3125C93.2083 29.0208 93.6146 29.7812 93.8438 30.5938C94.0938 31.3854 94.2188 32.1042 94.2188 32.75C94.2188 33.375 94.0625 34.0938 93.75 34.9062C93.4583 35.6979 92.9688 36.4583 92.2812 37.1875C91.5938 37.8958 90.6979 38.5 89.5938 39C88.4896 39.4792 87.1354 39.7188 85.5312 39.7188C84.6771 39.7188 83.9062 39.6042 83.2188 39.375C82.5521 39.125 81.9583 38.8229 81.4375 38.4688C80.9167 38.0938 80.4688 37.6979 80.0938 37.2812C79.7396 36.8438 79.4375 36.4375 79.1875 36.0625C78.8125 37.3542 78.625 38.8646 78.625 40.5938C78.625 41.7812 78.7917 42.8542 79.125 43.8125C79.4792 44.75 79.9583 45.5521 80.5625 46.2188C81.1667 46.8854 81.8854 47.3958 82.7188 47.75C83.5521 48.1042 84.4688 48.2812 85.4688 48.2812C86.7188 48.2812 87.8125 48.0729 88.75 47.6562C89.6875 47.2188 90.5 46.6771 91.1875 46.0312C91.8958 45.3854 92.5 44.6875 93 43.9375C93.5208 43.1667 93.9688 42.4688 94.3438 41.8438C94.7188 41.1979 95.0417 40.6667 95.3125 40.25C95.6042 39.8333 95.8854 39.6354 96.1562 39.6562C96.2812 39.6562 96.3438 39.7604 96.3438 39.9688C96.3438 40.0729 96.3333 40.1771 96.3125 40.2812C96.2917 40.3854 96.2604 40.4896 96.2188 40.5938ZM86.8125 28.9688C86.4375 28.9688 85.9479 29.0521 85.3438 29.2188C84.7604 29.3646 84.1354 29.6354 83.4688 30.0312C82.8229 30.4271 82.1771 30.9688 81.5312 31.6562C80.8854 32.3229 80.3229 33.1771 79.8438 34.2188C80.1354 34.0729 80.3854 33.9479 80.5938 33.8438C80.8229 33.7396 80.9792 33.6875 81.0625 33.6875C81.1042 33.6875 81.1667 33.7292 81.25 33.8125C81.7292 34.625 82.3229 35.2083 83.0312 35.5625C83.7604 35.8958 84.5729 36.0625 85.4688 36.0625C86.1771 36.0625 86.7812 35.9479 87.2812 35.7188C87.8021 35.4688 88.2292 35.1562 88.5625 34.7812C88.8958 34.4062 89.1354 34 89.2812 33.5625C89.4271 33.1042 89.5 32.6562 89.5 32.2188C89.5 31.2812 89.2604 30.5104 88.7812 29.9062C88.3021 29.2812 87.6458 28.9688 86.8125 28.9688ZM118.673 37.5938C118.673 38.2396 118.495 38.8229 118.141 39.3438C117.787 39.8438 117.131 40.1146 116.173 40.1562C115.985 40.1771 115.495 40.1979 114.704 40.2188C113.912 40.2396 112.964 40.2604 111.86 40.2812C110.777 40.3021 109.61 40.3333 108.36 40.375C107.11 40.3958 105.943 40.4167 104.86 40.4375C103.777 40.4583 102.85 40.4792 102.079 40.5C101.329 40.5208 100.881 40.5312 100.735 40.5312C100.298 40.5312 99.9538 40.4271 99.7038 40.2188C99.4538 39.9896 99.2663 39.7396 99.1413 39.4688C99.0163 39.1771 98.9433 38.9062 98.9225 38.6562C98.9017 38.4062 98.8913 38.25 98.8913 38.1875C98.8913 38.0417 98.9017 37.875 98.9225 37.6875C98.9433 37.5 98.9746 37.3229 99.0163 37.1562C99.0788 36.9688 99.1517 36.8125 99.235 36.6875C99.3183 36.5625 99.4121 36.4792 99.5163 36.4375C99.9329 36.3333 100.527 36.25 101.298 36.1875C102.068 36.1042 102.943 36.0417 103.923 36C104.902 35.9375 105.954 35.8958 107.079 35.875C108.204 35.8333 109.329 35.8021 110.454 35.7812C111.579 35.7604 112.683 35.75 113.766 35.75C114.85 35.75 115.839 35.75 116.735 35.75C117.048 35.75 117.318 35.8333 117.548 36C117.798 36.1458 118.006 36.3229 118.173 36.5312C118.339 36.7396 118.464 36.9479 118.548 37.1562C118.631 37.3646 118.673 37.5104 118.673 37.5938ZM130.814 8.34375C130.814 12.1146 130.741 15.9479 130.595 19.8438C130.449 23.7188 130.345 27.5729 130.283 31.4062C130.262 33.1562 130.272 34.8958 130.314 36.625C130.376 38.3333 130.439 39.9688 130.501 41.5312C130.585 43.0729 130.658 44.4896 130.72 45.7812C130.783 47.0521 130.814 48.125 130.814 49C130.814 49.6042 130.793 50.0938 130.751 50.4688C130.71 50.8229 130.637 51.0312 130.533 51.0938C130.428 51.1979 130.335 51.2604 130.251 51.2812C130.168 51.3021 130.085 51.3125 130.001 51.3125C129.918 51.3125 129.824 51.3125 129.72 51.3125C129.637 51.2917 129.533 51.3125 129.408 51.375C129.262 51.4375 129.168 51.5104 129.126 51.5938C129.085 51.6562 129.043 51.7292 129.001 51.8125C128.96 51.8958 128.897 51.9792 128.814 52.0625C128.73 52.1458 128.585 52.2292 128.376 52.3125C128.105 52.375 127.845 52.3021 127.595 52.0938C127.366 51.9062 127.137 51.75 126.908 51.625C126.553 51.4167 126.262 51.25 126.033 51.125C125.824 50.9792 125.626 50.7604 125.439 50.4688C125.293 50.2188 125.168 49.8438 125.064 49.3438C124.96 48.8229 124.876 48.2188 124.814 47.5312C124.751 46.8229 124.71 46.0417 124.689 45.1875C124.668 44.3333 124.658 43.4479 124.658 42.5312C124.658 41.4896 124.668 40.4479 124.689 39.4062C124.71 38.3438 124.73 37.3333 124.751 36.375C124.793 35.4167 124.824 34.5521 124.845 33.7812C124.866 33.0104 124.887 32.3854 124.908 31.9062C124.949 30.4062 125.001 28.8333 125.064 27.1875C125.147 25.5417 125.22 23.9062 125.283 22.2812C125.366 20.6354 125.449 19.0521 125.533 17.5312C125.616 16.0104 125.699 14.625 125.783 13.375C125.866 12.1042 125.939 11.0312 126.001 10.1562C126.085 9.26042 126.168 8.63542 126.251 8.28125C126.376 7.84375 126.595 7.59375 126.908 7.53125C127.053 7.46875 127.168 7.47917 127.251 7.5625C127.355 7.64583 127.47 7.59375 127.595 7.40625C127.637 7.30208 127.699 7.23958 127.783 7.21875C127.866 7.19792 127.949 7.1875 128.033 7.1875C128.116 7.1875 128.199 7.1875 128.283 7.1875C128.366 7.1875 128.439 7.16667 128.501 7.125C128.626 7 128.751 6.97917 128.876 7.0625C129.022 7.125 129.126 7.1875 129.189 7.25C129.251 7.39583 129.335 7.51042 129.439 7.59375C129.543 7.65625 129.658 7.63542 129.783 7.53125C129.845 7.46875 129.928 7.4375 130.033 7.4375C130.158 7.4375 130.241 7.48958 130.283 7.59375C130.345 7.69792 130.449 7.80208 130.595 7.90625C130.741 8.01042 130.814 8.15625 130.814 8.34375ZM146.018 15.25C146.018 15.375 145.997 15.7083 145.955 16.25C145.913 16.7708 145.851 17.4688 145.768 18.3438C145.705 19.2188 145.622 20.2396 145.518 21.4062C145.413 22.5521 145.309 23.7917 145.205 25.125C146.518 24.9583 147.757 24.8333 148.924 24.75C150.111 24.6458 151.111 24.5938 151.924 24.5938C152.195 24.5938 152.434 24.6458 152.643 24.75C152.851 24.8542 153.018 24.9792 153.143 25.125C153.288 25.25 153.403 25.3958 153.486 25.5625C153.57 25.7083 153.622 25.8333 153.643 25.9375C153.643 26.0417 153.653 26.1458 153.674 26.25C153.695 26.3333 153.705 26.4271 153.705 26.5312C153.705 26.9479 153.518 27.3646 153.143 27.7812C152.788 28.1979 152.247 28.4583 151.518 28.5625L144.861 29.2812C144.757 30.7812 144.663 32.3229 144.58 33.9062C144.497 35.4896 144.413 37.0729 144.33 38.6562C144.268 40.2188 144.215 41.7604 144.174 43.2812C144.132 44.8021 144.111 46.2396 144.111 47.5938C144.111 48.4688 144.132 49.1771 144.174 49.7188C144.215 50.2604 144.236 50.6146 144.236 50.7812C144.236 51.1354 144.163 51.4896 144.018 51.8438C143.893 52.1771 143.736 52.4792 143.549 52.75C143.382 53.0417 143.195 53.2708 142.986 53.4375C142.799 53.625 142.643 53.7188 142.518 53.7188C141.768 53.7188 141.174 53.4792 140.736 53C140.299 52.5417 139.965 51.9167 139.736 51.125C139.528 50.3333 139.393 49.4271 139.33 48.4062C139.268 47.3854 139.236 46.3229 139.236 45.2188C139.236 42.6146 139.309 40.0104 139.455 37.4062C139.601 34.7812 139.809 32.2604 140.08 29.8438L136.174 30.3125C136.111 30.3125 136.049 30.3229 135.986 30.3438C135.924 30.3646 135.851 30.375 135.768 30.375C135.372 30.375 135.059 30.2812 134.83 30.0938C134.58 29.9062 134.393 29.6875 134.268 29.4375C134.143 29.1875 134.07 28.9375 134.049 28.6875C134.007 28.4167 133.986 28.2083 133.986 28.0625C133.986 27.7708 134.028 27.5 134.111 27.25C134.195 27 134.351 26.8438 134.58 26.7812C135.018 26.6146 135.778 26.4375 136.861 26.25C137.965 26.0417 139.205 25.8333 140.58 25.625C140.809 23.9375 141.038 22.3958 141.268 21C141.518 19.5833 141.757 18.3646 141.986 17.3438C142.215 16.3021 142.424 15.5 142.611 14.9375C142.82 14.3542 142.997 14.0625 143.143 14.0625C143.184 14.0625 143.236 14.0729 143.299 14.0938C143.361 14.1146 143.413 14.125 143.455 14.125C143.58 14.125 143.674 14.0625 143.736 13.9375C143.82 13.7917 143.965 13.7188 144.174 13.7188C144.361 13.7188 144.559 13.7812 144.768 13.9062C144.997 14.0104 145.195 14.1458 145.361 14.3125C145.549 14.4792 145.705 14.6562 145.83 14.8438C145.955 15.0104 146.018 15.1458 146.018 15.25Z" fill="#2E3244"/>
<path d="M47.405 11.2188C47.4258 11.6354 47.405 12.1042 47.3425 12.625C47.3008 13.125 47.2175 13.6146 47.0925 14.0938C46.9883 14.5729 46.8321 15 46.6237 15.375C46.4362 15.75 46.2071 16.0104 45.9362 16.1562C45.2487 16.5104 44.6446 16.6875 44.1237 16.6875C43.7071 16.6875 43.3425 16.5938 43.03 16.4062C42.7383 16.1979 42.4467 15.9688 42.155 15.7188C41.7383 15.3854 41.3842 14.9479 41.0925 14.4062C40.8217 13.8646 40.6862 13.3438 40.6862 12.8438C40.6862 12.4479 40.7487 11.9688 40.8737 11.4062C41.0196 10.8229 41.1967 10.2604 41.405 9.71875C41.6133 9.17708 41.8321 8.6875 42.0612 8.25C42.3112 7.79167 42.5508 7.47917 42.78 7.3125C43.1342 7.02083 43.4571 6.86458 43.7487 6.84375C44.0612 6.80208 44.3112 6.8125 44.4987 6.875C44.9571 6.97917 45.3633 7.11458 45.7175 7.28125C46.0717 7.42708 46.3633 7.66667 46.5925 8C46.8425 8.3125 47.03 8.72917 47.155 9.25C47.28 9.77083 47.3633 10.4271 47.405 11.2188ZM44.8425 25.1875C44.9467 25.2917 45.0196 25.6354 45.0612 26.2188C45.1237 26.8021 45.155 27.5625 45.155 28.5C45.155 29.125 45.1446 29.8021 45.1237 30.5312C45.1029 31.2604 45.0717 32.0104 45.03 32.7812C45.0092 33.5521 44.9779 34.3333 44.9362 35.125C44.8946 35.8958 44.8633 36.6354 44.8425 37.3438C44.78 38.5104 44.7383 39.5938 44.7175 40.5938C44.7175 41.5729 44.7175 42.5208 44.7175 43.4375C44.7175 44.6458 44.7279 45.75 44.7487 46.75C44.7696 47.75 44.78 48.5833 44.78 49.25C44.78 49.9792 44.7487 50.5417 44.6862 50.9375C44.6446 51.3125 44.5404 51.5208 44.3737 51.5625C44.1862 51.6042 44.03 51.6979 43.905 51.8438C43.78 51.9688 43.6654 52.0938 43.5612 52.2188C43.4571 52.3438 43.3321 52.4479 43.1862 52.5312C43.0612 52.6354 42.905 52.6667 42.7175 52.625C42.6133 52.6042 42.4362 52.5104 42.1862 52.3438C41.9362 52.1771 41.6654 51.9792 41.3737 51.75C41.1029 51.5 40.8425 51.2188 40.5925 50.9062C40.3425 50.5938 40.1758 50.2708 40.0925 49.9375C40.0508 49.7708 40.0092 49.4375 39.9675 48.9375C39.9467 48.4375 39.9258 47.8333 39.905 47.125C39.8842 46.4167 39.8633 45.6354 39.8425 44.7812C39.8217 43.9062 39.8008 43.0312 39.78 42.1562C39.78 41.2604 39.78 40.3854 39.78 39.5312C39.78 38.6771 39.78 37.9062 39.78 37.2188C39.78 36.1562 39.8112 35.0729 39.8737 33.9688C39.9571 32.8646 40.0404 31.8333 40.1237 30.875C40.2279 29.9167 40.3217 29.0833 40.405 28.375C40.5092 27.6458 40.5821 27.1354 40.6237 26.8438C40.7071 26.3438 40.7904 25.9583 40.8737 25.6875C40.9779 25.3958 41.0821 25.1875 41.1862 25.0625C41.3112 24.9375 41.4258 24.8646 41.53 24.8438C41.655 24.8021 41.78 24.7708 41.905 24.75C42.155 24.7083 42.4362 24.6979 42.7487 24.7188C43.0821 24.7396 43.3946 24.7708 43.6862 24.8125C43.9779 24.8542 44.2279 24.9167 44.4362 25C44.6654 25.0625 44.8008 25.125 44.8425 25.1875Z" fill="#F1895C"/>
<path d="M48 11.5C48 13.9853 46.9231 16 44.7692 16C42.0769 16 41 13.9853 41 11.5C41 9.01472 42.6875 7 44.7692 7C46.8509 7 48 9.01472 48 11.5Z" fill="#2E3244"/>
<path d="M160.5 88C160.5 89.933 159.5 91.5 157.5 91.5C155 91.5 154 89.933 154 88C154 86.067 155.567 84.5 157.5 84.5C159.433 84.5 160.5 86.067 160.5 88Z" fill="#F1895C"/>
<ellipse cx="41.5" cy="48.5" rx="1.5" ry="11.5" fill="#F1895C"/>
<path d="M44.5 54C44.5947 56.7598 44.9432 60.4848 44.5 60.5C44.0568 60.5152 43.2663 56.7912 43.1716 54.0314C43.0769 51.2716 44.0568 49.0152 44.5 49C44.9432 48.9848 44.5 51 44.5 54Z" fill="#F1895C"/>
</svg>